<svg xmlns="http://www.w3.org/2000/svg" width="13.34" height="15.586" viewBox="0 0 13.34 15.586"><defs><style>.a{fill:none;stroke:#a6a6a6;}</style></defs><g transform="translate(0.5 0.5)"><path class="a" d="M45.413.482a1.087,1.087,0,0,0-.506-.4A1.067,1.067,0,0,0,44.483,0h-10.1a1.067,1.067,0,0,0-.424.087,1.086,1.086,0,0,0-.506.4,1.023,1.023,0,0,0-.188.6V13.507a1.024,1.024,0,0,0,.188.6,1.086,1.086,0,0,0,.506.4,1.066,1.066,0,0,0,.424.087,1.15,1.15,0,0,0,.8-.318l4.252-4.088,4.252,4.088a1.147,1.147,0,0,0,.8.308,1.122,1.122,0,0,0,.93-.472,1.022,1.022,0,0,0,.188-.6V1.08A1.024,1.024,0,0,0,45.413.482Z" transform="translate(-33.261)"/></g></svg>