<svg xmlns="http://www.w3.org/2000/svg" width="10.461" height="12.365" viewBox="0 0 10.461 12.365"><defs><style>.a{fill:#158cd1;}</style></defs><g transform="translate(-33.49 -1.811)"><path class="a" d="M43.563.409a.921.921,0,0,0-.429-.335A.9.9,0,0,0,42.774,0H34.209a.9.9,0,0,0-.36.074.921.921,0,0,0-.429.335.867.867,0,0,0-.159.507V11.45a.868.868,0,0,0,.159.507.921.921,0,0,0,.429.335.9.9,0,0,0,.36.073.975.975,0,0,0,.678-.27l3.6-3.465L42.1,12.1a.973.973,0,0,0,.678.261.951.951,0,0,0,.789-.4.867.867,0,0,0,.159-.507V.915A.868.868,0,0,0,43.563.409Z" transform="translate(0.229 1.811)"/></g></svg>