<svg xmlns="http://www.w3.org/2000/svg" width="15" height="16" viewBox="0 0 15 16"><defs><style>.a{fill:#9b9b9b;}</style></defs><g transform="translate(-16)"><g transform="translate(19.619)"><path class="a" d="M135.716,7.075a.484.484,0,0,0-.441-.284h-1.94V.485A.485.485,0,0,0,132.849,0h-1.94a.485.485,0,0,0-.485.485V6.791h-1.94a.485.485,0,0,0-.365.8l3.4,3.881a.484.484,0,0,0,.73,0l3.4-3.881A.484.484,0,0,0,135.716,7.075Z" transform="translate(-127.998)"/></g><g transform="translate(16 11.149)"><g transform="translate(0)"><path class="a" d="M29,352v2.91H18V352H16v3.881a.985.985,0,0,0,1,.97H30a.985.985,0,0,0,1-.97V352Z" transform="translate(-16 -352)"/></g></g></g></svg>